<svg viewBox="0 0 520 310" xmlns="http://www.w3.org/2000/svg" style="background:#2E3B38;">
<!-- LOGO -->
<g transform="translate(236, 28) scale(0.48)" opacity="0.6">
  <ellipse cx="50" cy="14" rx="12" ry="10" fill="#A8C4BF" transform="rotate(-4 50 14)"/>
  <path d="M29 46 C29 32,37 25,43 34 C45 38,47 40,50 40 C53 40,55 38,57 34 C63 25,71 32,71 46 C71 50,67 52,63 48 C60 45,57 42,55 42" fill="#A8C4BF"/>
  <path d="M50 57 C45 52,34 49,25 54 C17 59,16 71,22 77 C28 82,39 79,45 73 C47 70,49 66,50 63 C51 66,53 70,55 73 C61 79,72 82,78 77 C84 71,83 59,75 54 C66 49,55 52,50 57Z" fill="#A8C4BF"/>
  <ellipse cx="34" cy="67" rx="5.5" ry="3" fill="#2E3B38"/>
  <ellipse cx="66" cy="67" rx="5.5" ry="3" fill="#2E3B38"/>
</g>
<text x="260" y="88" text-anchor="middle" font-family="-apple-system,'Segoe UI',Arial,sans-serif" font-size="8.5" letter-spacing="1.8" fill="#A8C4BF" opacity="0.5">THE LONG BREATH · BY NEIL PEACOCK</text>
<!-- SUN -->
<circle cx="400" cy="128" r="44" fill="#CDA278" opacity=".14"/>
<circle cx="400" cy="128" r="32" fill="#E8CC7A" opacity=".16"/>
<circle cx="400" cy="128" r="22" fill="#F3E8C0" opacity=".18"/>
<circle cx="400" cy="128" r="14" fill="#F3F1EC" opacity=".16"/>
<line x1="400" y1="78"  x2="400" y2="70"  stroke="#E8CC7A" stroke-width="1.5" opacity=".25"/>
<line x1="400" y1="178" x2="400" y2="186" stroke="#E8CC7A" stroke-width="1.5" opacity=".18"/>
<line x1="350" y1="128" x2="342" y2="128" stroke="#E8CC7A" stroke-width="1.5" opacity=".22"/>
<line x1="368" y1="96"  x2="362" y2="90"  stroke="#E8CC7A" stroke-width="1.2" opacity=".20"/>
<line x1="432" y1="96"  x2="438" y2="90"  stroke="#E8CC7A" stroke-width="1.2" opacity=".20"/>
<line x1="368" y1="160" x2="362" y2="166" stroke="#E8CC7A" stroke-width="1.2" opacity=".16"/>
<line x1="432" y1="160" x2="438" y2="166" stroke="#E8CC7A" stroke-width="1.2" opacity=".16"/>
<ellipse cx="400" cy="150" rx="220" ry="100" fill="#CDA278" opacity=".05"/>
<ellipse cx="380" cy="170" rx="280" ry="120" fill="#E8CC7A" opacity=".03"/>
<!-- GROUND -->
<path d="M-10 285 Q130 282, 260 284 Q390 286, 530 283 L530 310 L-10 310Z" fill="#3D5C58" opacity=".35"/>
<path d="M-10 290 Q130 288, 260 290 Q390 292, 530 289 L530 310 L-10 310Z" fill="#2E3B38" opacity=".30"/>
<ellipse cx="80"  cy="285" rx="30" ry="4" fill="#5E7872" opacity=".20"/>
<ellipse cx="200" cy="284" rx="40" ry="3" fill="#5E7872" opacity=".16"/>
<ellipse cx="340" cy="285" rx="35" ry="3" fill="#5E7872" opacity=".18"/>
<ellipse cx="450" cy="284" rx="28" ry="3" fill="#5E7872" opacity=".16"/>
<!-- LEFT OAK -->
<path d="M72 292 C72 270, 74 250, 76 228 C77 218, 78 208, 80 196" stroke="#3D5C58" stroke-width="10" stroke-linecap="round" fill="none" opacity=".75"/>
<path d="M80 196 C80 185, 82 175, 84 162" stroke="#3D5C58" stroke-width="7" stroke-linecap="round" fill="none" opacity=".70"/>
<path d="M80 196 C70 184, 56 176, 42 172" stroke="#3D5C58" stroke-width="4.5" stroke-linecap="round" fill="none" opacity=".65"/>
<path d="M80 196 C78 178, 72 164, 64 152" stroke="#3D5C58" stroke-width="4" stroke-linecap="round" fill="none" opacity=".62"/>
<path d="M84 162 C90 148, 92 134, 88 120" stroke="#3D5C58" stroke-width="3.5" stroke-linecap="round" fill="none" opacity=".60"/>
<path d="M84 162 C96 150, 104 138, 108 124" stroke="#3D5C58" stroke-width="3" stroke-linecap="round" fill="none" opacity=".58"/>
<path d="M80 196 C90 182, 100 172, 112 166" stroke="#3D5C58" stroke-width="3.5" stroke-linecap="round" fill="none" opacity=".60"/>
<path d="M42 172 C30 164, 18 160, 6 162" stroke="#3D5C58" stroke-width="2.5" stroke-linecap="round" fill="none" opacity=".55"/>
<path d="M42 172 C36 158, 30 146, 24 136" stroke="#3D5C58" stroke-width="2" stroke-linecap="round" fill="none" opacity=".52"/>
<path d="M64 152 C52 142, 42 132, 34 120" stroke="#3D5C58" stroke-width="2" stroke-linecap="round" fill="none" opacity=".50"/>
<path d="M64 152 C66 138, 62 124, 56 112" stroke="#3D5C58" stroke-width="2" stroke-linecap="round" fill="none" opacity=".50"/>
<path d="M88 120 C82 106, 76 94, 68 84" stroke="#3D5C58" stroke-width="1.8" stroke-linecap="round" fill="none" opacity=".48"/>
<path d="M88 120 C96 108, 102 96, 104 84" stroke="#3D5C58" stroke-width="1.8" stroke-linecap="round" fill="none" opacity=".48"/>
<path d="M108 124 C114 110, 118 96, 116 82" stroke="#3D5C58" stroke-width="1.8" stroke-linecap="round" fill="none" opacity=".48"/>
<path d="M112 166 C122 154, 130 142, 136 128" stroke="#3D5C58" stroke-width="2" stroke-linecap="round" fill="none" opacity=".50"/>
<ellipse cx="60"  cy="156" rx="28" ry="22" fill="#5E7872" opacity=".38"/>
<ellipse cx="38"  cy="148" rx="24" ry="18" fill="#3D5C58" opacity=".42"/>
<ellipse cx="22"  cy="138" rx="18" ry="14" fill="#5E7872" opacity=".36"/>
<ellipse cx="76"  cy="138" rx="22" ry="18" fill="#3D5C58" opacity=".40"/>
<ellipse cx="92"  cy="118" rx="20" ry="16" fill="#5E7872" opacity=".38"/>
<ellipse cx="70"  cy="116" rx="18" ry="14" fill="#3D5C58" opacity=".42"/>
<ellipse cx="50"  cy="124" rx="16" ry="13" fill="#5E7872" opacity=".36"/>
<ellipse cx="108" cy="108" rx="20" ry="15" fill="#3D5C58" opacity=".40"/>
<ellipse cx="116" cy="124" rx="16" ry="13" fill="#5E7872" opacity=".36"/>
<ellipse cx="132" cy="118" rx="18" ry="14" fill="#3D5C58" opacity=".38"/>
<ellipse cx="88"  cy="96"  rx="18" ry="14" fill="#5E7872" opacity=".36"/>
<ellipse cx="106" cy="92"  rx="16" ry="12" fill="#3D5C58" opacity=".38"/>
<ellipse cx="68"  cy="100" rx="16" ry="12" fill="#5E7872" opacity=".34"/>
<ellipse cx="50"  cy="108" rx="14" ry="11" fill="#3D5C58" opacity=".36"/>
<ellipse cx="72"  cy="128" rx="14" ry="10" fill="#2E3B38" opacity=".30"/>
<ellipse cx="92"  cy="140" rx="12" ry="9"  fill="#2E3B38" opacity=".28"/>
<ellipse cx="48"  cy="136" rx="12" ry="9"  fill="#2E3B38" opacity=".26"/>
<!-- RIGHT OAK -->
<path d="M448 292 C448 270, 446 250, 444 228 C443 218, 442 208, 440 196" stroke="#3D5C58" stroke-width="10" stroke-linecap="round" fill="none" opacity=".75"/>
<path d="M440 196 C440 185, 438 175, 436 162" stroke="#3D5C58" stroke-width="7" stroke-linecap="round" fill="none" opacity=".70"/>
<path d="M440 196 C450 184, 464 176, 478 172" stroke="#3D5C58" stroke-width="4.5" stroke-linecap="round" fill="none" opacity=".65"/>
<path d="M440 196 C442 178, 448 164, 456 152" stroke="#3D5C58" stroke-width="4" stroke-linecap="round" fill="none" opacity=".62"/>
<path d="M436 162 C430 148, 428 134, 432 120" stroke="#3D5C58" stroke-width="3.5" stroke-linecap="round" fill="none" opacity=".60"/>
<path d="M436 162 C424 150, 416 138, 412 124" stroke="#3D5C58" stroke-width="3" stroke-linecap="round" fill="none" opacity=".58"/>
<path d="M440 196 C430 182, 420 172, 408 166" stroke="#3D5C58" stroke-width="3.5" stroke-linecap="round" fill="none" opacity=".60"/>
<path d="M478 172 C490 164, 502 160, 514 162" stroke="#3D5C58" stroke-width="2.5" stroke-linecap="round" fill="none" opacity=".55"/>
<path d="M478 172 C484 158, 490 146, 496 136" stroke="#3D5C58" stroke-width="2" stroke-linecap="round" fill="none" opacity=".52"/>
<path d="M456 152 C468 142, 478 132, 486 120" stroke="#3D5C58" stroke-width="2" stroke-linecap="round" fill="none" opacity=".50"/>
<path d="M456 152 C454 138, 458 124, 464 112" stroke="#3D5C58" stroke-width="2" stroke-linecap="round" fill="none" opacity=".50"/>
<path d="M432 120 C438 106, 444 94, 452 84" stroke="#3D5C58" stroke-width="1.8" stroke-linecap="round" fill="none" opacity=".48"/>
<path d="M432 120 C424 108, 418 96, 416 84" stroke="#3D5C58" stroke-width="1.8" stroke-linecap="round" fill="none" opacity=".48"/>
<path d="M412 124 C406 110, 402 96, 404 82" stroke="#3D5C58" stroke-width="1.8" stroke-linecap="round" fill="none" opacity=".48"/>
<path d="M408 166 C398 154, 390 142, 384 128" stroke="#3D5C58" stroke-width="2" stroke-linecap="round" fill="none" opacity=".50"/>
<ellipse cx="460" cy="156" rx="28" ry="22" fill="#5E7872" opacity=".38"/>
<ellipse cx="482" cy="148" rx="24" ry="18" fill="#3D5C58" opacity=".42"/>
<ellipse cx="498" cy="138" rx="18" ry="14" fill="#5E7872" opacity=".36"/>
<ellipse cx="444" cy="138" rx="22" ry="18" fill="#3D5C58" opacity=".40"/>
<ellipse cx="428" cy="118" rx="20" ry="16" fill="#5E7872" opacity=".38"/>
<ellipse cx="450" cy="116" rx="18" ry="14" fill="#3D5C58" opacity=".42"/>
<ellipse cx="470" cy="124" rx="16" ry="13" fill="#5E7872" opacity=".36"/>
<ellipse cx="412" cy="108" rx="20" ry="15" fill="#3D5C58" opacity=".40"/>
<ellipse cx="404" cy="124" rx="16" ry="13" fill="#5E7872" opacity=".36"/>
<ellipse cx="388" cy="118" rx="18" ry="14" fill="#3D5C58" opacity=".38"/>
<ellipse cx="432" cy="96"  rx="18" ry="14" fill="#5E7872" opacity=".36"/>
<ellipse cx="414" cy="92"  rx="16" ry="12" fill="#3D5C58" opacity=".38"/>
<ellipse cx="452" cy="100" rx="16" ry="12" fill="#5E7872" opacity=".34"/>
<ellipse cx="470" cy="108" rx="14" ry="11" fill="#3D5C58" opacity=".36"/>
<ellipse cx="448" cy="128" rx="14" ry="10" fill="#2E3B38" opacity=".30"/>
<ellipse cx="428" cy="140" rx="12" ry="9"  fill="#2E3B38" opacity=".28"/>
<ellipse cx="472" cy="136" rx="12" ry="9"  fill="#2E3B38" opacity=".26"/>
<!-- SLACKLINE -->
<path d="M80 222 Q260 236, 440 222" stroke="#CDA278" stroke-width="1.2" fill="none" opacity=".55"/>
<circle cx="80"  cy="222" r="2.5" fill="#CDA278" opacity=".60"/>
<circle cx="440" cy="222" r="2.5" fill="#CDA278" opacity=".60"/>
<!-- FIGURE -->
<ellipse cx="260" cy="233" rx="5" ry="1.5" fill="#2E3B38" opacity=".35"/>
<ellipse cx="260" cy="224" rx="5" ry="7" fill="#CDA278" opacity=".90"/>
<ellipse cx="260" cy="213" rx="4" ry="3.8" fill="#CDA278" opacity=".95" transform="rotate(-2 260 213)"/>
<line x1="260" y1="220" x2="249" y2="225" stroke="#CDA278" stroke-width="2.5" stroke-linecap="round" opacity=".75"/>
<line x1="260" y1="220" x2="271" y2="225" stroke="#CDA278" stroke-width="2.5" stroke-linecap="round" opacity=".75"/>
</svg>
