<svg viewBox="0 0 520 310" xmlns="http://www.w3.org/2000/svg" style="background:#2E3B38;">  <defs>   <clipPath id="rings-above">     <rect x="-10" y="0" width="540" height="288"/>   </clipPath> </defs>  <!-- LOGO --> <g transform="translate(236, 28) scale(0.48)" opacity="0.6">   <ellipse cx="50" cy="14" rx="12" ry="10" fill="#A8C4BF" transform="rotate(-4 50 14)"/>   <path d="M29 46 C29 32,37 25,43 34 C45 38,47 40,50 40 C53 40,55 38,57 34 C63 25,71 32,71 46 C71 50,67 52,63 48 C60 45,57 42,55 42" fill="#A8C4BF"/>   <path d="M50 57 C45 52,34 49,25 54 C17 59,16 71,22 77 C28 82,39 79,45 73 C47 70,49 66,50 63 C51 66,53 70,55 73 C61 79,72 82,78 77 C84 71,83 59,75 54 C66 49,55 52,50 57Z" fill="#A8C4BF"/>   <ellipse cx="34" cy="67" rx="5.5" ry="3" fill="#2E3B38"/>   <ellipse cx="66" cy="67" rx="5.5" ry="3" fill="#2E3B38"/> </g> <text x="260" y="88" text-anchor="middle" font-family="'Liberation Sans','Open Sans',Arial,sans-serif" font-size="8.5" letter-spacing="1.8" fill="#A8C4BF" opacity="0.5">THE LONG BREATH · BY NEIL PEACOCK</text>  <!-- RINGS — rings 1+2 fully visible, ring 3+ clipped at bottom --> <ellipse cx="260" cy="287" rx="30" ry="4" fill="none" stroke="#A8C4BF" stroke-width="1.0" opacity=".44"/> <ellipse cx="260" cy="287" rx="68" ry="9" fill="none" stroke="#A8C4BF" stroke-width="0.8" opacity=".30"/> <g clip-path="url(#rings-above)">   <ellipse cx="260" cy="287" rx="120" ry="16" fill="none" stroke="#A8C4BF" stroke-width="0.6" opacity=".20"/>   <ellipse cx="260" cy="287" rx="185" ry="25" fill="none" stroke="#A8C4BF" stroke-width="0.5" opacity=".12"/>   <ellipse cx="260" cy="287" rx="262" ry="35" fill="none" stroke="#A8C4BF" stroke-width="0.4" opacity=".07"/>   <ellipse cx="260" cy="287" rx="350" ry="47" fill="none" stroke="#A8C4BF" stroke-width="0.3" opacity=".04"/> </g>  <!-- CLOUDS ABOVE FIGURE --> <ellipse cx="252" cy="268" rx="7" ry="3.5" fill="#8AAA8E" opacity=".18"/> <ellipse cx="244" cy="264" rx="5" ry="2.8" fill="#5E7872" opacity=".13"/> <ellipse cx="262" cy="263" rx="5" ry="2.8" fill="#8AAA8E" opacity=".12"/> <ellipse cx="270" cy="268" rx="7" ry="3.5" fill="#5E7872" opacity=".16"/> <ellipse cx="278" cy="264" rx="5" ry="2.8" fill="#8AAA8E" opacity=".12"/> <ellipse cx="244" cy="252" rx="8" ry="4" fill="#5E7872" opacity=".15"/> <ellipse cx="236" cy="248" rx="5" ry="3" fill="#8AAA8E" opacity=".11"/> <ellipse cx="260" cy="250" rx="10" ry="5" fill="#8AAA8E" opacity=".17"/> <ellipse cx="252" cy="246" rx="6" ry="3" fill="#5E7872" opacity=".12"/> <ellipse cx="270" cy="247" rx="7" ry="3.5" fill="#5E7872" opacity=".13"/> <ellipse cx="280" cy="252" rx="8" ry="4" fill="#8AAA8E" opacity=".14"/> <ellipse cx="240" cy="236" rx="9" ry="4.5" fill="#8AAA8E" opacity=".14"/> <ellipse cx="230" cy="232" rx="6" ry="3" fill="#5E7872" opacity=".10"/> <ellipse cx="254" cy="234" rx="11" ry="5.5" fill="#5E7872" opacity=".15"/> <ellipse cx="266" cy="238" rx="9" ry="4.5" fill="#8AAA8E" opacity=".13"/> <ellipse cx="278" cy="234" rx="7" ry="3.5" fill="#5E7872" opacity=".11"/> <ellipse cx="290" cy="238" rx="8" ry="4" fill="#8AAA8E" opacity=".12"/>  <!-- CLOUDS LEFT --> <ellipse cx="228" cy="278" rx="7" ry="4" fill="#8AAA8E" opacity=".20"/> <ellipse cx="218" cy="274" rx="5" ry="2.8" fill="#5E7872" opacity=".15"/> <ellipse cx="238" cy="273" rx="4" ry="2.5" fill="#8AAA8E" opacity=".13"/> <ellipse cx="214" cy="262" rx="6" ry="3.5" fill="#5E7872" opacity=".17"/> <ellipse cx="206" cy="258" rx="4" ry="2.5" fill="#8AAA8E" opacity=".12"/> <ellipse cx="224" cy="256" rx="7" ry="4" fill="#8AAA8E" opacity=".16"/> <ellipse cx="212" cy="244" rx="6" ry="3.5" fill="#5E7872" opacity=".15"/> <ellipse cx="204" cy="240" rx="4" ry="2.5" fill="#8AAA8E" opacity=".11"/> <ellipse cx="220" cy="230" rx="7" ry="3.5" fill="#5E7872" opacity=".13"/> <ellipse cx="210" cy="218" rx="6" ry="3" fill="#8AAA8E" opacity=".12"/> <ellipse cx="220" cy="206" rx="7" ry="3.5" fill="#5E7872" opacity=".12"/> <ellipse cx="208" cy="194" rx="6" ry="3" fill="#8AAA8E" opacity=".11"/> <ellipse cx="218" cy="182" rx="7" ry="3.5" fill="#5E7872" opacity=".11"/> <ellipse cx="206" cy="168" rx="6" ry="3" fill="#8AAA8E" opacity=".10"/> <ellipse cx="216" cy="154" rx="7" ry="3.5" fill="#5E7872" opacity=".10"/> <ellipse cx="188" cy="282" rx="11" ry="6" fill="#5E7872" opacity=".18"/> <ellipse cx="176" cy="277" rx="8" ry="4.5" fill="#8AAA8E" opacity=".14"/> <ellipse cx="200" cy="276" rx="7" ry="4" fill="#5E7872" opacity=".12"/> <ellipse cx="172" cy="264" rx="10" ry="5.5" fill="#8AAA8E" opacity=".16"/> <ellipse cx="160" cy="259" rx="7" ry="4" fill="#5E7872" opacity=".13"/> <ellipse cx="184" cy="261" rx="8" ry="4.5" fill="#8AAA8E" opacity=".12"/> <ellipse cx="192" cy="248" rx="9" ry="5" fill="#5E7872" opacity=".15"/> <ellipse cx="178" cy="243" rx="7" ry="4" fill="#8AAA8E" opacity=".12"/> <ellipse cx="164" cy="244" rx="8" ry="4.5" fill="#5E7872" opacity=".13"/> <ellipse cx="186" cy="230" rx="9" ry="5" fill="#8AAA8E" opacity=".14"/> <ellipse cx="170" cy="224" rx="7" ry="4" fill="#5E7872" opacity=".12"/> <ellipse cx="180" cy="212" rx="9" ry="5" fill="#5E7872" opacity=".13"/> <ellipse cx="164" cy="206" rx="7" ry="4" fill="#8AAA8E" opacity=".11"/> <ellipse cx="176" cy="192" rx="9" ry="5" fill="#8AAA8E" opacity=".12"/> <ellipse cx="160" cy="180" rx="7" ry="4" fill="#5E7872" opacity=".11"/> <ellipse cx="172" cy="166" rx="9" ry="5" fill="#5E7872" opacity=".12"/> <ellipse cx="156" cy="154" rx="7" ry="4" fill="#8AAA8E" opacity=".10"/> <ellipse cx="168" cy="140" rx="9" ry="5" fill="#5E7872" opacity=".11"/> <ellipse cx="152" cy="128" rx="7" ry="4" fill="#8AAA8E" opacity=".10"/> <ellipse cx="138" cy="278" rx="16" ry="9" fill="#5E7872" opacity=".16"/> <ellipse cx="120" cy="272" rx="12" ry="7" fill="#8AAA8E" opacity=".13"/> <ellipse cx="154" cy="271" rx="10" ry="6" fill="#5E7872" opacity=".12"/> <ellipse cx="128" cy="260" rx="14" ry="8" fill="#8AAA8E" opacity=".15"/> <ellipse cx="110" cy="254" rx="10" ry="6" fill="#5E7872" opacity=".13"/> <ellipse cx="144" cy="256" rx="11" ry="6.5" fill="#8AAA8E" opacity=".12"/> <ellipse cx="134" cy="242" rx="14" ry="8" fill="#5E7872" opacity=".14"/> <ellipse cx="116" cy="236" rx="10" ry="6" fill="#8AAA8E" opacity=".12"/> <ellipse cx="148" cy="238" rx="11" ry="6.5" fill="#5E7872" opacity=".12"/> <ellipse cx="124" cy="222" rx="14" ry="8" fill="#8AAA8E" opacity=".14"/> <ellipse cx="106" cy="216" rx="10" ry="6" fill="#5E7872" opacity=".12"/> <ellipse cx="138" cy="218" rx="12" ry="7" fill="#8AAA8E" opacity=".12"/> <ellipse cx="128" cy="202" rx="14" ry="8" fill="#5E7872" opacity=".13"/> <ellipse cx="110" cy="196" rx="10" ry="6" fill="#8AAA8E" opacity=".11"/> <ellipse cx="144" cy="198" rx="12" ry="7" fill="#5E7872" opacity=".12"/> <ellipse cx="122" cy="180" rx="14" ry="8" fill="#8AAA8E" opacity=".13"/> <ellipse cx="104" cy="174" rx="10" ry="6" fill="#5E7872" opacity=".11"/> <ellipse cx="138" cy="176" rx="12" ry="7" fill="#8AAA8E" opacity=".11"/> <ellipse cx="116" cy="158" rx="14" ry="8" fill="#5E7872" opacity=".12"/> <ellipse cx="98" cy="152" rx="10" ry="6" fill="#8AAA8E" opacity=".11"/> <ellipse cx="132" cy="154" rx="12" ry="7" fill="#5E7872" opacity=".11"/> <ellipse cx="110" cy="136" rx="14" ry="8" fill="#8AAA8E" opacity=".12"/> <ellipse cx="126" cy="132" rx="12" ry="7" fill="#5E7872" opacity=".11"/> <ellipse cx="114" cy="116" rx="13" ry="7.5" fill="#8AAA8E" opacity=".11"/> <ellipse cx="68" cy="276" rx="26" ry="14" fill="#5E7872" opacity=".14"/> <ellipse cx="44" cy="269" rx="18" ry="10" fill="#8AAA8E" opacity=".11"/> <ellipse cx="88" cy="268" rx="16" ry="9" fill="#5E7872" opacity=".10"/> <ellipse cx="58" cy="256" rx="24" ry="13" fill="#8AAA8E" opacity=".13"/> <ellipse cx="34" cy="249" rx="18" ry="10" fill="#5E7872" opacity=".11"/> <ellipse cx="76" cy="251" rx="16" ry="9" fill="#8AAA8E" opacity=".10"/> <ellipse cx="14" cy="256" rx="16" ry="9" fill="#5E7872" opacity=".10"/> <ellipse cx="52" cy="238" rx="24" ry="13" fill="#5E7872" opacity=".13"/> <ellipse cx="28" cy="231" rx="18" ry="10" fill="#8AAA8E" opacity=".11"/> <ellipse cx="70" cy="233" rx="16" ry="9" fill="#5E7872" opacity=".10"/> <ellipse cx="4" cy="234" rx="14" ry="8" fill="#8AAA8E" opacity=".10"/> <ellipse cx="44" cy="216" rx="24" ry="13" fill="#8AAA8E" opacity=".12"/> <ellipse cx="20" cy="209" rx="18" ry="10" fill="#5E7872" opacity=".10"/> <ellipse cx="64" cy="211" rx="18" ry="10" fill="#5E7872" opacity=".11"/> <ellipse cx="2" cy="212" rx="14" ry="8" fill="#8AAA8E" opacity=".10"/> <ellipse cx="40" cy="194" rx="24" ry="13" fill="#5E7872" opacity=".12"/> <ellipse cx="16" cy="187" rx="18" ry="10" fill="#8AAA8E" opacity=".10"/> <ellipse cx="60" cy="189" rx="18" ry="10" fill="#5E7872" opacity=".11"/> <ellipse cx="76" cy="172" rx="22" ry="12" fill="#8AAA8E" opacity=".12"/> <ellipse cx="52" cy="166" rx="18" ry="10" fill="#5E7872" opacity=".11"/> <ellipse cx="94" cy="168" rx="18" ry="10" fill="#8AAA8E" opacity=".10"/> <ellipse cx="30" cy="162" rx="20" ry="11" fill="#5E7872" opacity=".11"/> <ellipse cx="6" cy="155" rx="16" ry="9" fill="#8AAA8E" opacity=".09"/> <ellipse cx="72" cy="148" rx="22" ry="12" fill="#5E7872" opacity=".12"/> <ellipse cx="48" cy="142" rx="18" ry="10" fill="#8AAA8E" opacity=".10"/> <ellipse cx="90" cy="144" rx="18" ry="10" fill="#5E7872" opacity=".10"/> <ellipse cx="22" cy="136" rx="20" ry="11" fill="#8AAA8E" opacity=".11"/> <ellipse cx="60" cy="124" rx="22" ry="12" fill="#5E7872" opacity=".11"/> <ellipse cx="36" cy="118" rx="18" ry="10" fill="#8AAA8E" opacity=".10"/> <ellipse cx="80" cy="120" rx="20" ry="11" fill="#5E7872" opacity=".10"/> <ellipse cx="14" cy="108" rx="16" ry="9" fill="#8AAA8E" opacity=".09"/> <ellipse cx="50" cy="102" rx="22" ry="12" fill="#5E7872" opacity=".11"/> <ellipse cx="74" cy="98" rx="20" ry="11" fill="#8AAA8E" opacity=".10"/>  <!-- CLOUDS RIGHT --> <ellipse cx="292" cy="278" rx="7" ry="4" fill="#8AAA8E" opacity=".20"/> <ellipse cx="302" cy="274" rx="5" ry="2.8" fill="#5E7872" opacity=".15"/> <ellipse cx="282" cy="273" rx="4" ry="2.5" fill="#8AAA8E" opacity=".13"/> <ellipse cx="306" cy="264" rx="6" ry="3.5" fill="#5E7872" opacity=".17"/> <ellipse cx="314" cy="260" rx="4" ry="2.5" fill="#8AAA8E" opacity=".12"/> <ellipse cx="296" cy="256" rx="7" ry="4" fill="#8AAA8E" opacity=".16"/> <ellipse cx="308" cy="246" rx="6" ry="3.5" fill="#5E7872" opacity=".15"/> <ellipse cx="316" cy="242" rx="4" ry="2.5" fill="#8AAA8E" opacity=".11"/> <ellipse cx="300" cy="230" rx="7" ry="3.5" fill="#5E7872" opacity=".13"/> <ellipse cx="310" cy="218" rx="6" ry="3" fill="#8AAA8E" opacity=".12"/> <ellipse cx="300" cy="206" rx="7" ry="3.5" fill="#5E7872" opacity=".12"/> <ellipse cx="312" cy="194" rx="6" ry="3" fill="#8AAA8E" opacity=".11"/> <ellipse cx="302" cy="182" rx="7" ry="3.5" fill="#5E7872" opacity=".11"/> <ellipse cx="314" cy="168" rx="6" ry="3" fill="#8AAA8E" opacity=".10"/> <ellipse cx="304" cy="154" rx="7" ry="3.5" fill="#5E7872" opacity=".10"/> <ellipse cx="332" cy="282" rx="11" ry="6" fill="#5E7872" opacity=".18"/> <ellipse cx="344" cy="277" rx="8" ry="4.5" fill="#8AAA8E" opacity=".14"/> <ellipse cx="320" cy="276" rx="7" ry="4" fill="#5E7872" opacity=".12"/> <ellipse cx="348" cy="264" rx="10" ry="5.5" fill="#8AAA8E" opacity=".16"/> <ellipse cx="360" cy="259" rx="7" ry="4" fill="#5E7872" opacity=".13"/> <ellipse cx="336" cy="261" rx="8" ry="4.5" fill="#8AAA8E" opacity=".12"/> <ellipse cx="328" cy="248" rx="9" ry="5" fill="#5E7872" opacity=".15"/> <ellipse cx="342" cy="243" rx="7" ry="4" fill="#8AAA8E" opacity=".12"/> <ellipse cx="356" cy="244" rx="8" ry="4.5" fill="#5E7872" opacity=".13"/> <ellipse cx="334" cy="230" rx="9" ry="5" fill="#8AAA8E" opacity=".14"/> <ellipse cx="350" cy="224" rx="7" ry="4" fill="#5E7872" opacity=".12"/> <ellipse cx="340" cy="212" rx="9" ry="5" fill="#5E7872" opacity=".13"/> <ellipse cx="356" cy="206" rx="7" ry="4" fill="#8AAA8E" opacity=".11"/> <ellipse cx="344" cy="192" rx="9" ry="5" fill="#8AAA8E" opacity=".12"/> <ellipse cx="360" cy="180" rx="7" ry="4" fill="#5E7872" opacity=".11"/> <ellipse cx="348" cy="166" rx="9" ry="5" fill="#5E7872" opacity=".12"/> <ellipse cx="364" cy="154" rx="7" ry="4" fill="#8AAA8E" opacity=".10"/> <ellipse cx="352" cy="140" rx="9" ry="5" fill="#5E7872" opacity=".11"/> <ellipse cx="368" cy="128" rx="7" ry="4" fill="#8AAA8E" opacity=".10"/> <ellipse cx="382" cy="278" rx="16" ry="9" fill="#5E7872" opacity=".16"/> <ellipse cx="400" cy="272" rx="12" ry="7" fill="#8AAA8E" opacity=".13"/> <ellipse cx="366" cy="271" rx="10" ry="6" fill="#5E7872" opacity=".12"/> <ellipse cx="392" cy="260" rx="14" ry="8" fill="#8AAA8E" opacity=".15"/> <ellipse cx="410" cy="254" rx="10" ry="6" fill="#5E7872" opacity=".13"/> <ellipse cx="376" cy="256" rx="11" ry="6.5" fill="#8AAA8E" opacity=".12"/> <ellipse cx="386" cy="242" rx="14" ry="8" fill="#5E7872" opacity=".14"/> <ellipse cx="404" cy="236" rx="10" ry="6" fill="#8AAA8E" opacity=".12"/> <ellipse cx="372" cy="238" rx="11" ry="6.5" fill="#5E7872" opacity=".12"/> <ellipse cx="396" cy="222" rx="14" ry="8" fill="#8AAA8E" opacity=".14"/> <ellipse cx="414" cy="216" rx="10" ry="6" fill="#5E7872" opacity=".12"/> <ellipse cx="382" cy="218" rx="12" ry="7" fill="#8AAA8E" opacity=".12"/> <ellipse cx="392" cy="202" rx="14" ry="8" fill="#5E7872" opacity=".13"/> <ellipse cx="410" cy="196" rx="10" ry="6" fill="#8AAA8E" opacity=".11"/> <ellipse cx="376" cy="198" rx="12" ry="7" fill="#5E7872" opacity=".12"/> <ellipse cx="398" cy="180" rx="14" ry="8" fill="#8AAA8E" opacity=".13"/> <ellipse cx="416" cy="174" rx="10" ry="6" fill="#5E7872" opacity=".11"/> <ellipse cx="382" cy="176" rx="12" ry="7" fill="#8AAA8E" opacity=".11"/> <ellipse cx="394" cy="158" rx="14" ry="8" fill="#5E7872" opacity=".12"/> <ellipse cx="412" cy="152" rx="10" ry="6" fill="#8AAA8E" opacity=".11"/> <ellipse cx="378" cy="154" rx="12" ry="7" fill="#5E7872" opacity=".11"/> <ellipse cx="400" cy="136" rx="14" ry="8" fill="#8AAA8E" opacity=".12"/> <ellipse cx="386" cy="132" rx="12" ry="7" fill="#5E7872" opacity=".11"/> <ellipse cx="406" cy="116" rx="13" ry="7.5" fill="#8AAA8E" opacity=".11"/> <ellipse cx="452" cy="276" rx="26" ry="14" fill="#5E7872" opacity=".14"/> <ellipse cx="476" cy="269" rx="18" ry="10" fill="#8AAA8E" opacity=".11"/> <ellipse cx="432" cy="268" rx="16" ry="9" fill="#5E7872" opacity=".10"/> <ellipse cx="462" cy="256" rx="24" ry="13" fill="#8AAA8E" opacity=".13"/> <ellipse cx="486" cy="249" rx="18" ry="10" fill="#5E7872" opacity=".11"/> <ellipse cx="444" cy="251" rx="16" ry="9" fill="#8AAA8E" opacity=".10"/> <ellipse cx="506" cy="256" rx="16" ry="9" fill="#5E7872" opacity=".10"/> <ellipse cx="468" cy="238" rx="24" ry="13" fill="#5E7872" opacity=".13"/> <ellipse cx="492" cy="231" rx="18" ry="10" fill="#8AAA8E" opacity=".11"/> <ellipse cx="450" cy="233" rx="16" ry="9" fill="#5E7872" opacity=".10"/> <ellipse cx="514" cy="234" rx="14" ry="8" fill="#8AAA8E" opacity=".10"/> <ellipse cx="444" cy="216" rx="24" ry="13" fill="#8AAA8E" opacity=".12"/> <ellipse cx="420" cy="209" rx="18" ry="10" fill="#5E7872" opacity=".10"/> <ellipse cx="464" cy="211" rx="18" ry="10" fill="#5E7872" opacity=".11"/> <ellipse cx="516" cy="212" rx="14" ry="8" fill="#8AAA8E" opacity=".10"/> <ellipse cx="440" cy="194" rx="24" ry="13" fill="#5E7872" opacity=".12"/> <ellipse cx="416" cy="187" rx="18" ry="10" fill="#8AAA8E" opacity=".10"/> <ellipse cx="460" cy="189" rx="18" ry="10" fill="#5E7872" opacity=".11"/> <ellipse cx="444" cy="172" rx="22" ry="12" fill="#8AAA8E" opacity=".12"/> <ellipse cx="468" cy="166" rx="18" ry="10" fill="#5E7872" opacity=".11"/> <ellipse cx="426" cy="168" rx="18" ry="10" fill="#8AAA8E" opacity=".10"/> <ellipse cx="490" cy="162" rx="20" ry="11" fill="#5E7872" opacity=".11"/> <ellipse cx="514" cy="155" rx="16" ry="9" fill="#8AAA8E" opacity=".09"/> <ellipse cx="448" cy="148" rx="22" ry="12" fill="#5E7872" opacity=".12"/> <ellipse cx="472" cy="142" rx="18" ry="10" fill="#8AAA8E" opacity=".10"/> <ellipse cx="430" cy="144" rx="18" ry="10" fill="#5E7872" opacity=".10"/> <ellipse cx="494" cy="136" rx="20" ry="11" fill="#8AAA8E" opacity=".11"/> <ellipse cx="460" cy="124" rx="22" ry="12" fill="#5E7872" opacity=".11"/> <ellipse cx="436" cy="118" rx="18" ry="10" fill="#8AAA8E" opacity=".10"/> <ellipse cx="480" cy="120" rx="20" ry="11" fill="#5E7872" opacity=".10"/> <ellipse cx="514" cy="108" rx="16" ry="9" fill="#8AAA8E" opacity=".09"/> <ellipse cx="450" cy="102" rx="22" ry="12" fill="#5E7872" opacity=".11"/> <ellipse cx="474" cy="98" rx="20" ry="11" fill="#8AAA8E" opacity=".10"/>  <!-- FIGURE --> <ellipse cx="260" cy="292" rx="9" ry="2.2" fill="#2E3B38" opacity=".40"/> <ellipse cx="260" cy="286" rx="9" ry="5.5" fill="#CDA278" opacity=".82"/> <ellipse cx="260" cy="274" rx="5" ry="8.5" fill="#CDA278" opacity=".90"/> <ellipse cx="260" cy="262" rx="4.2" ry="3.8" fill="#CDA278" opacity=".95" transform="rotate(-2 260 262)"/>  </svg>
