<svg viewBox="0 0 520 310" xmlns="http://www.w3.org/2000/svg" style="background:#2E3B38;">
<!-- STARS + MILKY WAY CLUSTER (fixed) -->
<circle cx="466.3" cy="235.1" r="1.3" fill="#E0DED6" opacity="0.27"/>
<circle cx="99.9" cy="172.5" r="0.8" fill="#F3F1EC" opacity="0.51"/>
<circle cx="188.4" cy="172.6" r="0.5" fill="#E0DED6" opacity="0.31"/>
<circle cx="475.5" cy="105.1" r="1.2" fill="#E0DED6" opacity="0.19"/>
<circle cx="128.5" cy="119.9" r="0.5" fill="#E0DED6" opacity="0.46"/>
<circle cx="262.2" cy="243.0" r="1.3" fill="#E0DED6" opacity="0.20"/>
<circle cx="259.2" cy="201.0" r="0.8" fill="#E0DED6" opacity="0.45"/>
<circle cx="86.9" cy="227.8" r="0.8" fill="#E0DED6" opacity="0.46"/>
<circle cx="390.9" cy="243.5" r="1.1" fill="#E0DED6" opacity="0.31"/>
<circle cx="365.3" cy="53.5" r="1.1" fill="#F3F1EC" opacity="0.42"/>
<circle cx="462.2" cy="93.5" r="0.6" fill="#E0DED6" opacity="0.49"/>
<circle cx="288.5" cy="48.5" r="0.7" fill="#E0DED6" opacity="0.52"/>
<circle cx="75.4" cy="188.3" r="0.8" fill="#F3F1EC" opacity="0.49"/>
<circle cx="375.5" cy="101.4" r="0.8" fill="#F3F1EC" opacity="0.40"/>
<circle cx="158.4" cy="46.9" r="1.1" fill="#F3F1EC" opacity="0.52"/>
<circle cx="353.8" cy="121.8" r="0.6" fill="#F3F1EC" opacity="0.44"/>
<circle cx="72.8" cy="189.6" r="0.8" fill="#E0DED6" opacity="0.47"/>
<circle cx="22.8" cy="172.7" r="1.0" fill="#F3F1EC" opacity="0.32"/>
<circle cx="141.9" cy="256.7" r="0.4" fill="#E0DED6" opacity="0.41"/>
<circle cx="371.4" cy="8.3" r="0.6" fill="#E0DED6" opacity="0.33"/>
<circle cx="273.7" cy="229.3" r="0.7" fill="#E0DED6" opacity="0.53"/>
<circle cx="519.2" cy="19.8" r="1.3" fill="#E0DED6" opacity="0.28"/>
<circle cx="309.6" cy="95.0" r="1.0" fill="#F3F1EC" opacity="0.19"/>
<circle cx="482.9" cy="77.9" r="1.3" fill="#E0DED6" opacity="0.24"/>
<circle cx="505.9" cy="51.3" r="0.7" fill="#F3F1EC" opacity="0.45"/>
<circle cx="222.1" cy="30.1" r="0.8" fill="#F3F1EC" opacity="0.26"/>
<circle cx="413.4" cy="93.7" r="1.0" fill="#E0DED6" opacity="0.20"/>
<circle cx="258.3" cy="85.2" r="0.7" fill="#E0DED6" opacity="0.21"/>
<circle cx="423.2" cy="148.3" r="1.3" fill="#F3F1EC" opacity="0.24"/>
<circle cx="457.6" cy="50.6" r="0.8" fill="#E0DED6" opacity="0.28"/>
<circle cx="332.6" cy="48.4" r="1.0" fill="#F3F1EC" opacity="0.39"/>
<circle cx="473.2" cy="229.2" r="0.7" fill="#E0DED6" opacity="0.40"/>
<circle cx="21.2" cy="177.2" r="0.8" fill="#F3F1EC" opacity="0.19"/>
<circle cx="292.5" cy="244.8" r="1.3" fill="#E0DED6" opacity="0.35"/>
<circle cx="431.9" cy="216.2" r="1.0" fill="#F3F1EC" opacity="0.32"/>
<circle cx="339.4" cy="174.8" r="0.7" fill="#E0DED6" opacity="0.28"/>
<circle cx="75.1" cy="25.3" r="0.5" fill="#F3F1EC" opacity="0.35"/>
<circle cx="382.1" cy="175.1" r="1.0" fill="#E0DED6" opacity="0.45"/>
<circle cx="312.3" cy="79.8" r="1.3" fill="#E0DED6" opacity="0.36"/>
<circle cx="9.2" cy="32.1" r="0.7" fill="#F3F1EC" opacity="0.19"/>
<circle cx="170.0" cy="53.5" r="0.9" fill="#E0DED6" opacity="0.41"/>
<circle cx="33.6" cy="113.2" r="0.5" fill="#E0DED6" opacity="0.29"/>
<circle cx="128.8" cy="133.2" r="1.3" fill="#F3F1EC" opacity="0.23"/>
<circle cx="495.2" cy="16.0" r="0.6" fill="#E0DED6" opacity="0.20"/>
<circle cx="68.3" cy="185.3" r="1.3" fill="#E0DED6" opacity="0.32"/>
<circle cx="77.7" cy="143.9" r="0.8" fill="#F3F1EC" opacity="0.46"/>
<circle cx="247.6" cy="59.8" r="0.4" fill="#F3F1EC" opacity="0.39"/>
<circle cx="103.5" cy="261.1" r="1.3" fill="#F3F1EC" opacity="0.36"/>
<circle cx="278.0" cy="79.3" r="1.3" fill="#F3F1EC" opacity="0.25"/>
<circle cx="140.7" cy="81.1" r="1.0" fill="#E0DED6" opacity="0.33"/>
<circle cx="212.0" cy="132.4" r="1.2" fill="#F3F1EC" opacity="0.49"/>
<circle cx="444.9" cy="137.2" r="1.3" fill="#F3F1EC" opacity="0.52"/>
<circle cx="506.0" cy="133.0" r="1.1" fill="#F3F1EC" opacity="0.27"/>
<circle cx="51.2" cy="103.9" r="1.0" fill="#E0DED6" opacity="0.39"/>
<circle cx="122.4" cy="220.2" r="0.6" fill="#E0DED6" opacity="0.27"/>
<circle cx="400.6" cy="108.7" r="0.4" fill="#F3F1EC" opacity="0.37"/>
<circle cx="446.1" cy="132.8" r="1.3" fill="#E0DED6" opacity="0.22"/>
<circle cx="506.8" cy="194.3" r="1.4" fill="#E0DED6" opacity="0.35"/>
<circle cx="181.1" cy="200.4" r="1.2" fill="#F3F1EC" opacity="0.39"/>
<circle cx="249.2" cy="64.1" r="0.7" fill="#E0DED6" opacity="0.50"/>
<circle cx="417.8" cy="246.8" r="0.9" fill="#E0DED6" opacity="0.29"/>
<circle cx="403.7" cy="211.9" r="0.5" fill="#E0DED6" opacity="0.45"/>
<circle cx="327.3" cy="243.5" r="0.8" fill="#E0DED6" opacity="0.38"/>
<circle cx="499.8" cy="145.5" r="0.5" fill="#F3F1EC" opacity="0.50"/>
<circle cx="99.4" cy="208.7" r="0.8" fill="#E0DED6" opacity="0.34"/>
<circle cx="59.9" cy="201.0" r="1.0" fill="#E0DED6" opacity="0.29"/>
<circle cx="420.8" cy="36.4" r="1.1" fill="#F3F1EC" opacity="0.44"/>
<circle cx="435.8" cy="67.4" r="1.3" fill="#E0DED6" opacity="0.45"/>
<circle cx="17.5" cy="137.9" r="0.6" fill="#E0DED6" opacity="0.49"/>
<circle cx="398.7" cy="30.0" r="1.1" fill="#F3F1EC" opacity="0.29"/>
<circle cx="205.4" cy="229.2" r="1.2" fill="#E0DED6" opacity="0.21"/>
<circle cx="168.1" cy="139.3" r="1.2" fill="#E0DED6" opacity="0.42"/>
<circle cx="376.9" cy="260.7" r="0.4" fill="#F3F1EC" opacity="0.24"/>
<circle cx="317.9" cy="261.6" r="1.0" fill="#F3F1EC" opacity="0.22"/>
<circle cx="88.8" cy="150.6" r="0.9" fill="#F3F1EC" opacity="0.43"/>
<circle cx="89.9" cy="5.9" r="0.5" fill="#E0DED6" opacity="0.33"/>
<circle cx="110.3" cy="173.9" r="1.3" fill="#E0DED6" opacity="0.27"/>
<circle cx="477.6" cy="147.4" r="1.2" fill="#E0DED6" opacity="0.55"/>
<circle cx="347.5" cy="8.5" r="0.5" fill="#E0DED6" opacity="0.44"/>
<circle cx="116.0" cy="55.9" r="0.8" fill="#F3F1EC" opacity="0.35"/>
<circle cx="507.6" cy="94.8" r="1.3" fill="#E0DED6" opacity="0.23"/>
<circle cx="353.7" cy="170.5" r="0.4" fill="#F3F1EC" opacity="0.53"/>
<circle cx="515.4" cy="139.7" r="1.1" fill="#F3F1EC" opacity="0.21"/>
<circle cx="143.0" cy="230.7" r="0.7" fill="#F3F1EC" opacity="0.51"/>
<circle cx="410.1" cy="95.4" r="1.4" fill="#F3F1EC" opacity="0.51"/>
<circle cx="489.6" cy="86.6" r="1.3" fill="#F3F1EC" opacity="0.38"/>
<circle cx="389.9" cy="242.7" r="0.9" fill="#F3F1EC" opacity="0.37"/>
<circle cx="34.4" cy="95.0" r="1.3" fill="#F3F1EC" opacity="0.34"/>
<circle cx="12.5" cy="91.8" r="1.3" fill="#E0DED6" opacity="0.30"/>
<circle cx="135.3" cy="55.2" r="0.5" fill="#E0DED6" opacity="0.22"/>
<circle cx="46.6" cy="152.5" r="1.1" fill="#E0DED6" opacity="0.41"/>
<circle cx="109.9" cy="61.4" r="1.4" fill="#F3F1EC" opacity="0.20"/>
<circle cx="462.9" cy="100.9" r="1.1" fill="#F3F1EC" opacity="0.50"/>
<circle cx="339.2" cy="56.7" r="0.4" fill="#E0DED6" opacity="0.44"/>
<circle cx="283.5" cy="220.7" r="1.0" fill="#E0DED6" opacity="0.20"/>
<circle cx="454.4" cy="52.7" r="0.7" fill="#E0DED6" opacity="0.31"/>
<circle cx="517.4" cy="139.2" r="1.0" fill="#F3F1EC" opacity="0.45"/>
<circle cx="337.8" cy="27.1" r="0.6" fill="#F3F1EC" opacity="0.55"/>
<circle cx="30.9" cy="243.6" r="1.4" fill="#F3F1EC" opacity="0.50"/>
<circle cx="407.9" cy="58.1" r="1.2" fill="#F3F1EC" opacity="0.46"/>
<circle cx="39.0" cy="35.4" r="0.6" fill="#F3F1EC" opacity="0.18"/>
<circle cx="288.2" cy="102.9" r="1.2" fill="#F3F1EC" opacity="0.37"/>
<circle cx="271.7" cy="104.7" r="0.5" fill="#E0DED6" opacity="0.34"/>
<circle cx="175.5" cy="127.1" r="1.1" fill="#E0DED6" opacity="0.19"/>
<circle cx="114.6" cy="244.3" r="1.4" fill="#F3F1EC" opacity="0.43"/>
<circle cx="203.1" cy="159.2" r="0.9" fill="#F3F1EC" opacity="0.28"/>
<circle cx="111.3" cy="107.9" r="1.1" fill="#F3F1EC" opacity="0.39"/>
<circle cx="450.5" cy="256.9" r="1.3" fill="#F3F1EC" opacity="0.33"/>
<circle cx="25.7" cy="76.0" r="0.7" fill="#F3F1EC" opacity="0.50"/>
<circle cx="60.1" cy="260.9" r="0.8" fill="#E0DED6" opacity="0.31"/>
<circle cx="309.5" cy="199.4" r="0.9" fill="#E0DED6" opacity="0.33"/>
<circle cx="488.9" cy="83.2" r="1.3" fill="#E0DED6" opacity="0.52"/>
<circle cx="109.3" cy="164.5" r="0.4" fill="#F3F1EC" opacity="0.54"/>
<circle cx="6.9" cy="72.0" r="0.6" fill="#F3F1EC" opacity="0.23"/>
<circle cx="170.7" cy="40.6" r="0.4" fill="#F3F1EC" opacity="0.49"/>
<circle cx="120.9" cy="96.7" r="0.6" fill="#F3F1EC" opacity="0.45"/>
<circle cx="36.0" cy="91.7" r="1.3" fill="#F3F1EC" opacity="0.42"/>
<circle cx="347.9" cy="55.9" r="0.6" fill="#F3F1EC" opacity="0.27"/>
<circle cx="497.1" cy="36.4" r="1.3" fill="#F3F1EC" opacity="0.31"/>
<circle cx="283.0" cy="163.9" r="0.9" fill="#E0DED6" opacity="0.21"/>
<circle cx="456.2" cy="171.0" r="1.3" fill="#E0DED6" opacity="0.52"/>
<circle cx="146.4" cy="228.7" r="1.3" fill="#E0DED6" opacity="0.24"/>
<circle cx="456.3" cy="44.0" r="0.7" fill="#E0DED6" opacity="0.38"/>
<circle cx="415.7" cy="45.6" r="0.7" fill="#E0DED6" opacity="0.43"/>
<circle cx="114.4" cy="60.4" r="0.7" fill="#E0DED6" opacity="0.43"/>
<circle cx="185.6" cy="77.2" r="1.0" fill="#E0DED6" opacity="0.20"/>
<circle cx="354.0" cy="116.9" r="0.6" fill="#F3F1EC" opacity="0.38"/>
<circle cx="152.0" cy="213.7" r="1.1" fill="#E0DED6" opacity="0.47"/>
<circle cx="431.1" cy="223.8" r="0.7" fill="#F3F1EC" opacity="0.26"/>
<circle cx="485.8" cy="222.5" r="1.0" fill="#E0DED6" opacity="0.38"/>
<circle cx="441.2" cy="75.5" r="0.6" fill="#E0DED6" opacity="0.43"/>
<circle cx="34.8" cy="134.5" r="0.5" fill="#F3F1EC" opacity="0.52"/>
<circle cx="446.5" cy="11.8" r="0.5" fill="#F3F1EC" opacity="0.43"/>
<circle cx="75.2" cy="110.6" r="1.0" fill="#F3F1EC" opacity="0.25"/>
<circle cx="332.6" cy="173.2" r="1.4" fill="#F3F1EC" opacity="0.44"/>
<circle cx="433.6" cy="162.7" r="0.4" fill="#F3F1EC" opacity="0.20"/>
<circle cx="164.0" cy="171.0" r="0.6" fill="#F3F1EC" opacity="0.25"/>
<circle cx="468.9" cy="169.4" r="1.0" fill="#F3F1EC" opacity="0.36"/>
<circle cx="340.7" cy="55.2" r="0.8" fill="#E0DED6" opacity="0.38"/>
<circle cx="133.8" cy="12.0" r="0.5" fill="#F3F1EC" opacity="0.25"/>
<circle cx="508.8" cy="106.9" r="1.0" fill="#F3F1EC" opacity="0.42"/>
<circle cx="396.5" cy="224.8" r="1.2" fill="#E0DED6" opacity="0.46"/>
<circle cx="248.2" cy="161.3" r="0.5" fill="#F3F1EC" opacity="0.48"/>
<circle cx="2.8" cy="127.6" r="1.3" fill="#F3F1EC" opacity="0.39"/>
<circle cx="175.4" cy="257.3" r="0.6" fill="#E0DED6" opacity="0.24"/>
<circle cx="203.1" cy="152.3" r="0.8" fill="#E0DED6" opacity="0.39"/>
<circle cx="218.3" cy="197.8" r="0.5" fill="#E0DED6" opacity="0.50"/>
<circle cx="147.7" cy="100.9" r="1.3" fill="#E0DED6" opacity="0.48"/>
<circle cx="496.5" cy="98.2" r="0.6" fill="#F3F1EC" opacity="0.47"/>
<circle cx="367.4" cy="166.5" r="0.8" fill="#E0DED6" opacity="0.34"/>
<circle cx="319.7" cy="229.6" r="1.0" fill="#E0DED6" opacity="0.46"/>
<circle cx="305.4" cy="134.4" r="1.2" fill="#E0DED6" opacity="0.54"/>
<circle cx="483.9" cy="115.9" r="0.7" fill="#F3F1EC" opacity="0.22"/>
<circle cx="262.5" cy="89.7" r="1.0" fill="#F3F1EC" opacity="0.45"/>
<circle cx="329.0" cy="9.3" r="0.8" fill="#E0DED6" opacity="0.26"/>
<circle cx="182.5" cy="141.7" r="1.3" fill="#E0DED6" opacity="0.46"/>
<circle cx="338.5" cy="233.4" r="1.2" fill="#F3F1EC" opacity="0.43"/>
<circle cx="43.2" cy="114.9" r="1.3" fill="#E0DED6" opacity="0.27"/>
<circle cx="405.2" cy="211.0" r="1.4" fill="#F3F1EC" opacity="0.38"/>
<circle cx="303.4" cy="261.5" r="0.7" fill="#E0DED6" opacity="0.45"/>
<circle cx="305.0" cy="71.9" r="1.1" fill="#F3F1EC" opacity="0.49"/>
<circle cx="382.9" cy="171.9" r="1.2" fill="#E0DED6" opacity="0.27"/>
<circle cx="428.5" cy="204.7" r="1.1" fill="#F3F1EC" opacity="0.45"/>
<circle cx="177.1" cy="127.3" r="0.7" fill="#E0DED6" opacity="0.30"/>
<circle cx="283.6" cy="175.5" r="0.7" fill="#F3F1EC" opacity="0.45"/>
<circle cx="517.1" cy="17.6" r="1.0" fill="#E0DED6" opacity="0.22"/>
<circle cx="283.1" cy="223.0" r="1.0" fill="#F3F1EC" opacity="0.46"/>
<circle cx="448.3" cy="85.6" r="1.4" fill="#F3F1EC" opacity="0.42"/>
<circle cx="102.6" cy="171.4" r="1.3" fill="#E0DED6" opacity="0.49"/>
<circle cx="131.5" cy="69.6" r="0.7" fill="#E0DED6" opacity="0.36"/>
<circle cx="272.4" cy="136.0" r="0.6" fill="#F3F1EC" opacity="0.22"/>
<circle cx="274.0" cy="57.6" r="0.8" fill="#E0DED6" opacity="0.33"/>
<circle cx="63.7" cy="25.7" r="1.0" fill="#E0DED6" opacity="0.42"/>
<circle cx="31.9" cy="100.5" r="1.0" fill="#F3F1EC" opacity="0.24"/>
<circle cx="91.2" cy="8.8" r="0.6" fill="#E0DED6" opacity="0.46"/>
<circle cx="89.8" cy="224.6" r="0.5" fill="#E0DED6" opacity="0.29"/>
<circle cx="419.0" cy="70.8" r="0.5" fill="#F3F1EC" opacity="0.47"/>
<circle cx="257.1" cy="97.5" r="1.3" fill="#E0DED6" opacity="0.36"/>
<circle cx="131.4" cy="259.3" r="1.3" fill="#F3F1EC" opacity="0.43"/>
<circle cx="438.1" cy="118.5" r="0.8" fill="#F3F1EC" opacity="0.22"/>
<circle cx="141.6" cy="8.2" r="0.6" fill="#F3F1EC" opacity="0.27"/>
<circle cx="274.7" cy="140.6" r="0.5" fill="#F3F1EC" opacity="0.50"/>
<circle cx="180.7" cy="239.3" r="0.5" fill="#F3F1EC" opacity="0.36"/>
<circle cx="426.8" cy="90.7" r="0.7" fill="#E0DED6" opacity="0.47"/>
<circle cx="364.9" cy="54.9" r="1.0" fill="#F3F1EC" opacity="0.27"/>
<circle cx="374.9" cy="217.0" r="0.9" fill="#E0DED6" opacity="0.18"/>
<circle cx="157.1" cy="213.3" r="0.6" fill="#E0DED6" opacity="0.42"/>
<circle cx="501.8" cy="78.8" r="0.7" fill="#F3F1EC" opacity="0.50"/>
<circle cx="308.1" cy="172.6" r="0.8" fill="#F3F1EC" opacity="0.41"/>
<circle cx="282.2" cy="187.2" r="0.7" fill="#F3F1EC" opacity="0.22"/>
<circle cx="29.5" cy="259.7" r="0.7" fill="#F3F1EC" opacity="0.47"/>
<circle cx="198.5" cy="26.2" r="0.8" fill="#E0DED6" opacity="0.39"/>
<circle cx="505.4" cy="42.0" r="0.8" fill="#F3F1EC" opacity="0.37"/>
<circle cx="395.6" cy="69.9" r="0.6" fill="#E0DED6" opacity="0.34"/>
<circle cx="425.4" cy="149.9" r="1.1" fill="#F3F1EC" opacity="0.36"/>
<circle cx="7.9" cy="6.6" r="1.2" fill="#F3F1EC" opacity="0.51"/>
<circle cx="392.6" cy="211.6" r="0.6" fill="#F3F1EC" opacity="0.33"/>
<circle cx="176.5" cy="79.8" r="0.6" fill="#F3F1EC" opacity="0.33"/>
<circle cx="131.0" cy="42.2" r="1.1" fill="#F3F1EC" opacity="0.31"/>
<circle cx="86.0" cy="221.4" r="0.8" fill="#F3F1EC" opacity="0.52"/>
<circle cx="168.5" cy="184.7" r="0.8" fill="#E0DED6" opacity="0.19"/>
<circle cx="258.5" cy="115.4" r="0.8" fill="#E0DED6" opacity="0.38"/>
<circle cx="35.5" cy="84.2" r="1.0" fill="#E0DED6" opacity="0.19"/>
<circle cx="241.8" cy="159.0" r="0.8" fill="#E0DED6" opacity="0.50"/>
<circle cx="455.9" cy="200.2" r="0.7" fill="#F3F1EC" opacity="0.39"/>
<circle cx="19.6" cy="8.2" r="1.3" fill="#F3F1EC" opacity="0.25"/>
<circle cx="175.4" cy="18.4" r="1.1" fill="#F3F1EC" opacity="0.35"/>
<circle cx="23.0" cy="134.8" r="0.7" fill="#E0DED6" opacity="0.41"/>
<circle cx="64.2" cy="251.2" r="1.3" fill="#E0DED6" opacity="0.30"/>
<circle cx="62.2" cy="260.2" r="1.2" fill="#F3F1EC" opacity="0.24"/>
<circle cx="230.1" cy="33.4" r="1.2" fill="#F3F1EC" opacity="0.20"/>
<circle cx="119.6" cy="235.1" r="1.3" fill="#F3F1EC" opacity="0.29"/>
<circle cx="371.7" cy="108.7" r="1.2" fill="#E0DED6" opacity="0.19"/>
<circle cx="378.6" cy="157.1" r="0.8" fill="#F3F1EC" opacity="0.50"/>
<circle cx="72.5" cy="182.2" r="1.2" fill="#E0DED6" opacity="0.38"/>
<circle cx="240.4" cy="98.8" r="0.7" fill="#F3F1EC" opacity="0.51"/>
<circle cx="233.2" cy="139.9" r="1.2" fill="#F3F1EC" opacity="0.49"/>
<circle cx="368.4" cy="14.7" r="1.3" fill="#F3F1EC" opacity="0.36"/>
<circle cx="82.6" cy="156.5" r="0.5" fill="#E0DED6" opacity="0.27"/>
<circle cx="6.8" cy="173.2" r="1.0" fill="#F3F1EC" opacity="0.44"/>
<circle cx="229.7" cy="116.9" r="0.5" fill="#F3F1EC" opacity="0.45"/>
<circle cx="150.3" cy="227.4" r="1.0" fill="#E0DED6" opacity="0.47"/>
<circle cx="94.5" cy="150.0" r="1.3" fill="#F3F1EC" opacity="0.49"/>
<circle cx="230.0" cy="113.1" r="0.6" fill="#E0DED6" opacity="0.32"/>
<circle cx="226.4" cy="170.6" r="1.3" fill="#F3F1EC" opacity="0.25"/>
<circle cx="246.9" cy="261.1" r="0.9" fill="#F3F1EC" opacity="0.38"/>
<circle cx="257.4" cy="57.5" r="1.4" fill="#E0DED6" opacity="0.30"/>
<circle cx="168.7" cy="204.8" r="0.4" fill="#E0DED6" opacity="0.51"/>
<circle cx="27.8" cy="40.5" r="1.0" fill="#F3F1EC" opacity="0.23"/>
<circle cx="191.4" cy="117.2" r="0.7" fill="#F3F1EC" opacity="0.18"/>
<circle cx="59.9" cy="127.7" r="1.0" fill="#F3F1EC" opacity="0.45"/>
<circle cx="208.5" cy="258.6" r="1.1" fill="#E0DED6" opacity="0.25"/>
<circle cx="340.4" cy="63.4" r="0.5" fill="#F3F1EC" opacity="0.42"/>
<circle cx="176.5" cy="131.4" r="0.9" fill="#F3F1EC" opacity="0.21"/>
<circle cx="302.1" cy="238.5" r="0.5" fill="#F3F1EC" opacity="0.38"/>
<circle cx="348.3" cy="7.8" r="0.9" fill="#F3F1EC" opacity="0.22"/>
<circle cx="348.3" cy="158.4" r="1.0" fill="#E0DED6" opacity="0.46"/>
<circle cx="275.0" cy="222.6" r="1.3" fill="#F3F1EC" opacity="0.54"/>
<circle cx="471.7" cy="246.3" r="0.6" fill="#E0DED6" opacity="0.21"/>
<circle cx="343.4" cy="67.9" r="0.6" fill="#E0DED6" opacity="0.39"/>
<circle cx="176.9" cy="238.0" r="0.8" fill="#F3F1EC" opacity="0.24"/>
<circle cx="237.3" cy="196.7" r="1.2" fill="#E0DED6" opacity="0.55"/>
<circle cx="352.9" cy="214.2" r="1.2" fill="#F3F1EC" opacity="0.52"/>
<circle cx="1.4" cy="54.1" r="1.4" fill="#E0DED6" opacity="0.51"/>
<circle cx="250.7" cy="231.3" r="0.6" fill="#F3F1EC" opacity="0.34"/>
<circle cx="478.2" cy="60.3" r="0.5" fill="#E0DED6" opacity="0.49"/>
<circle cx="61.9" cy="47.9" r="0.6" fill="#F3F1EC" opacity="0.38"/>
<circle cx="303.4" cy="206.3" r="0.9" fill="#E0DED6" opacity="0.46"/>
<circle cx="501.3" cy="233.4" r="1.1" fill="#F3F1EC" opacity="0.49"/>
<circle cx="329.3" cy="193.9" r="1.2" fill="#F3F1EC" opacity="0.46"/>
<circle cx="303.5" cy="83.0" r="0.8" fill="#E0DED6" opacity="0.24"/>
<circle cx="499.6" cy="54.2" r="0.4" fill="#F3F1EC" opacity="0.27"/>
<circle cx="298.7" cy="87.0" r="0.6" fill="#E0DED6" opacity="0.52"/>
<circle cx="98.2" cy="197.5" r="0.4" fill="#E0DED6" opacity="0.24"/>
<circle cx="77.1" cy="89.4" r="1.3" fill="#E0DED6" opacity="0.35"/>
<circle cx="329.9" cy="61.3" r="0.4" fill="#F3F1EC" opacity="0.32"/>
<circle cx="215.5" cy="92.8" r="1.2" fill="#F3F1EC" opacity="0.40"/>
<circle cx="408.4" cy="194.0" r="0.9" fill="#E0DED6" opacity="0.47"/>
<circle cx="245.6" cy="17.8" r="1.4" fill="#F3F1EC" opacity="0.40"/>
<circle cx="304.3" cy="113.9" r="0.6" fill="#E0DED6" opacity="0.48"/>
<circle cx="124.1" cy="8.9" r="1.0" fill="#F3F1EC" opacity="0.43"/>
<circle cx="370.3" cy="125.9" r="0.8" fill="#E0DED6" opacity="0.22"/>
<circle cx="151.6" cy="178.2" r="1.3" fill="#F3F1EC" opacity="0.49"/>
<circle cx="157.4" cy="204.0" r="0.8" fill="#E0DED6" opacity="0.42"/>
<circle cx="137.4" cy="114.8" r="1.1" fill="#F3F1EC" opacity="0.28"/>
<circle cx="56.9" cy="87.6" r="0.8" fill="#F3F1EC" opacity="0.49"/>
<circle cx="333.0" cy="150.9" r="0.4" fill="#F3F1EC" opacity="0.33"/>
<circle cx="108.2" cy="251.4" r="0.5" fill="#F3F1EC" opacity="0.35"/>
<circle cx="511.4" cy="79.4" r="0.8" fill="#F3F1EC" opacity="0.20"/>
<circle cx="518.8" cy="114.0" r="1.4" fill="#F3F1EC" opacity="0.38"/>
<circle cx="29.7" cy="8.5" r="0.5" fill="#E0DED6" opacity="0.49"/>
<circle cx="364.5" cy="143.0" r="1.0" fill="#F3F1EC" opacity="0.41"/>
<circle cx="298.2" cy="23.9" r="1.2" fill="#F3F1EC" opacity="0.42"/>
<circle cx="11.1" cy="15.6" r="0.5" fill="#F3F1EC" opacity="0.27"/>
<circle cx="506.7" cy="32.9" r="1.0" fill="#E0DED6" opacity="0.23"/>
<circle cx="369.6" cy="64.3" r="0.6" fill="#E0DED6" opacity="0.24"/>
<circle cx="67.5" cy="61.8" r="1.0" fill="#F3F1EC" opacity="0.37"/>
<circle cx="72.9" cy="230.1" r="1.0" fill="#F3F1EC" opacity="0.29"/>
<circle cx="358.6" cy="172.3" r="0.5" fill="#E0DED6" opacity="0.47"/>
<circle cx="227.1" cy="55.2" r="0.5" fill="#E0DED6" opacity="0.28"/>
<circle cx="502.9" cy="235.0" r="1.0" fill="#F3F1EC" opacity="0.34"/>
<circle cx="444.3" cy="82.7" r="1.3" fill="#F3F1EC" opacity="0.34"/>
<circle cx="82.9" cy="132.5" r="0.8" fill="#F3F1EC" opacity="0.54"/>
<circle cx="25.7" cy="44.9" r="1.1" fill="#F3F1EC" opacity="0.43"/>
<circle cx="64.6" cy="179.4" r="0.9" fill="#F3F1EC" opacity="0.55"/>
<circle cx="310.4" cy="240.9" r="0.5" fill="#E0DED6" opacity="0.18"/>
<circle cx="274.7" cy="100.2" r="0.9" fill="#E0DED6" opacity="0.26"/>
<circle cx="206.6" cy="96.5" r="1.4" fill="#E0DED6" opacity="0.46"/>
<circle cx="375.6" cy="107.2" r="0.6" fill="#F3F1EC" opacity="0.36"/>
<circle cx="425.2" cy="70.2" r="1.2" fill="#F3F1EC" opacity="0.46"/>
<circle cx="324.0" cy="118.1" r="0.5" fill="#F3F1EC" opacity="0.49"/>
<circle cx="220.2" cy="24.1" r="0.7" fill="#E0DED6" opacity="0.49"/>
<circle cx="12.8" cy="259.0" r="0.7" fill="#F3F1EC" opacity="0.36"/>
<circle cx="428.9" cy="232.3" r="0.6" fill="#E0DED6" opacity="0.41"/>
<circle cx="461.4" cy="44.6" r="1.1" fill="#E0DED6" opacity="0.21"/>
<circle cx="184.7" cy="79.0" r="0.6" fill="#F3F1EC" opacity="0.32"/>
<circle cx="301.6" cy="159.9" r="1.4" fill="#E0DED6" opacity="0.38"/>
<circle cx="270.2" cy="110.3" r="0.9" fill="#E0DED6" opacity="0.49"/>
<circle cx="81.4" cy="36.6" r="0.4" fill="#F3F1EC" opacity="0.21"/>
<circle cx="372.4" cy="162.5" r="1.2" fill="#F3F1EC" opacity="0.42"/>
<circle cx="432.4" cy="99.8" r="1.2" fill="#F3F1EC" opacity="0.64"/>
<circle cx="203.7" cy="173.7" r="1.1" fill="#F3F1EC" opacity="0.26"/>
<circle cx="420.0" cy="103.6" r="1.1" fill="#E0DED6" opacity="0.33"/>
<circle cx="122.1" cy="227.1" r="1.3" fill="#F3F1EC" opacity="0.29"/>
<circle cx="172.7" cy="185.7" r="1.3" fill="#F3F1EC" opacity="0.26"/>
<circle cx="273.5" cy="175.1" r="0.9" fill="#E0DED6" opacity="0.34"/>
<circle cx="133.9" cy="235.2" r="1.0" fill="#E0DED6" opacity="0.46"/>
<circle cx="359.6" cy="152.8" r="1.2" fill="#F3F1EC" opacity="0.48"/>
<circle cx="421.2" cy="112.1" r="0.6" fill="#F3F1EC" opacity="0.41"/>
<circle cx="145.0" cy="211.0" r="1.6" fill="#E0DED6" opacity="0.62"/>
<circle cx="102.9" cy="235.0" r="0.8" fill="#F3F1EC" opacity="0.41"/>
<circle cx="259.0" cy="188.2" r="1.0" fill="#E0DED6" opacity="0.34"/>
<circle cx="195.7" cy="207.6" r="1.0" fill="#E0DED6" opacity="0.60"/>
<circle cx="350.7" cy="145.5" r="1.3" fill="#E0DED6" opacity="0.62"/>
<circle cx="400.9" cy="99.9" r="1.6" fill="#F3F1EC" opacity="0.26"/>
<circle cx="380.8" cy="118.1" r="0.9" fill="#F3F1EC" opacity="0.62"/>
<circle cx="477.8" cy="86.7" r="1.3" fill="#F3F1EC" opacity="0.47"/>
<circle cx="377.9" cy="151.3" r="0.9" fill="#E0DED6" opacity="0.41"/>
<circle cx="157.5" cy="234.5" r="1.6" fill="#E0DED6" opacity="0.44"/>
<circle cx="181.5" cy="217.7" r="0.8" fill="#F3F1EC" opacity="0.53"/>
<circle cx="237.3" cy="215.0" r="0.9" fill="#F3F1EC" opacity="0.36"/>
<circle cx="398.2" cy="122.5" r="1.1" fill="#F3F1EC" opacity="0.30"/>
<circle cx="166.2" cy="216.2" r="1.2" fill="#F3F1EC" opacity="0.41"/>
<circle cx="215.0" cy="180.6" r="1.2" fill="#F3F1EC" opacity="0.43"/>
<circle cx="203.5" cy="185.8" r="1.0" fill="#F3F1EC" opacity="0.65"/>
<circle cx="324.6" cy="159.2" r="1.0" fill="#E0DED6" opacity="0.54"/>
<circle cx="222.7" cy="219.4" r="0.5" fill="#F3F1EC" opacity="0.62"/>
<circle cx="419.2" cy="122.8" r="1.1" fill="#F3F1EC" opacity="0.37"/>
<circle cx="387.9" cy="123.2" r="1.5" fill="#E0DED6" opacity="0.64"/>
<circle cx="346.3" cy="127.2" r="1.2" fill="#F3F1EC" opacity="0.35"/>
<circle cx="469.7" cy="123.0" r="1.2" fill="#F3F1EC" opacity="0.34"/>
<circle cx="330.7" cy="172.8" r="0.5" fill="#E0DED6" opacity="0.51"/>
<circle cx="162.9" cy="238.0" r="0.6" fill="#F3F1EC" opacity="0.30"/>
<circle cx="181.4" cy="194.1" r="0.9" fill="#F3F1EC" opacity="0.47"/>
<circle cx="137.6" cy="222.2" r="0.7" fill="#F3F1EC" opacity="0.44"/>
<circle cx="65.5" cy="245.0" r="1.3" fill="#F3F1EC" opacity="0.52"/>
<circle cx="275.1" cy="151.6" r="0.5" fill="#E0DED6" opacity="0.63"/>
<circle cx="186.2" cy="197.0" r="0.8" fill="#E0DED6" opacity="0.49"/>
<circle cx="261.1" cy="180.4" r="1.1" fill="#F3F1EC" opacity="0.47"/>
<circle cx="330.9" cy="148.0" r="1.0" fill="#F3F1EC" opacity="0.35"/>
<circle cx="167.7" cy="205.1" r="1.0" fill="#F3F1EC" opacity="0.26"/>
<circle cx="55.4" cy="236.4" r="0.9" fill="#E0DED6" opacity="0.57"/>
<circle cx="274.0" cy="179.7" r="1.1" fill="#E0DED6" opacity="0.34"/>
<circle cx="147.2" cy="236.2" r="1.2" fill="#E0DED6" opacity="0.56"/>
<circle cx="270.7" cy="198.6" r="0.4" fill="#F3F1EC" opacity="0.29"/>
<circle cx="294.0" cy="183.9" r="1.2" fill="#F3F1EC" opacity="0.58"/>
<circle cx="206.7" cy="213.0" r="0.5" fill="#F3F1EC" opacity="0.59"/>
<circle cx="341.7" cy="136.1" r="0.8" fill="#F3F1EC" opacity="0.31"/>
<circle cx="288.5" cy="166.4" r="1.0" fill="#F3F1EC" opacity="0.36"/>
<circle cx="150.1" cy="222.8" r="0.4" fill="#F3F1EC" opacity="0.64"/>
<circle cx="397.7" cy="101.7" r="1.5" fill="#F3F1EC" opacity="0.30"/>
<circle cx="424.4" cy="112.8" r="0.9" fill="#E0DED6" opacity="0.58"/>
<circle cx="144.7" cy="223.0" r="0.4" fill="#F3F1EC" opacity="0.32"/>
<circle cx="263.1" cy="191.4" r="0.9" fill="#F3F1EC" opacity="0.53"/>
<circle cx="131.5" cy="232.0" r="0.7" fill="#F3F1EC" opacity="0.33"/>
<circle cx="226.3" cy="193.1" r="1.5" fill="#F3F1EC" opacity="0.33"/>
<circle cx="87.0" cy="226.9" r="1.1" fill="#E0DED6" opacity="0.57"/>
<circle cx="278.0" cy="168.2" r="1.2" fill="#F3F1EC" opacity="0.26"/>
<circle cx="362.2" cy="113.3" r="0.6" fill="#F3F1EC" opacity="0.50"/>
<circle cx="202.3" cy="197.3" r="1.3" fill="#F3F1EC" opacity="0.37"/>
<circle cx="218.4" cy="198.1" r="0.5" fill="#E0DED6" opacity="0.34"/>
<circle cx="290.3" cy="174.7" r="1.4" fill="#F3F1EC" opacity="0.46"/>
<circle cx="306.2" cy="159.7" r="1.4" fill="#F3F1EC" opacity="0.36"/>
<circle cx="385.4" cy="151.3" r="1.0" fill="#F3F1EC" opacity="0.26"/>
<circle cx="71.0" cy="255.6" r="1.0" fill="#F3F1EC" opacity="0.59"/>
<circle cx="192.0" cy="200.6" r="0.9" fill="#F3F1EC" opacity="0.32"/>
<circle cx="222.6" cy="185.9" r="0.8" fill="#F3F1EC" opacity="0.52"/>
<circle cx="438.8" cy="128.1" r="0.6" fill="#E0DED6" opacity="0.41"/>
<circle cx="413.2" cy="122.0" r="1.4" fill="#E0DED6" opacity="0.45"/>
<circle cx="394.1" cy="138.2" r="1.0" fill="#F3F1EC" opacity="0.50"/>
<circle cx="144.1" cy="205.8" r="0.8" fill="#F3F1EC" opacity="0.30"/>
<circle cx="403.2" cy="122.9" r="1.4" fill="#F3F1EC" opacity="0.26"/>
<circle cx="268.4" cy="174.1" r="0.8" fill="#E0DED6" opacity="0.38"/>
<circle cx="309.8" cy="154.4" r="0.9" fill="#F3F1EC" opacity="0.35"/>
<circle cx="151.5" cy="233.1" r="1.5" fill="#F3F1EC" opacity="0.61"/>
<circle cx="394.4" cy="129.6" r="1.6" fill="#F3F1EC" opacity="0.60"/>
<circle cx="267.6" cy="178.2" r="1.2" fill="#F3F1EC" opacity="0.32"/>
<circle cx="195.1" cy="212.2" r="1.4" fill="#F3F1EC" opacity="0.43"/>
<circle cx="312.0" cy="185.2" r="0.9" fill="#F3F1EC" opacity="0.59"/>
<circle cx="428.4" cy="114.7" r="1.6" fill="#F3F1EC" opacity="0.27"/>
<circle cx="307.5" cy="166.3" r="1.6" fill="#F3F1EC" opacity="0.42"/>
<circle cx="274.9" cy="183.9" r="1.3" fill="#F3F1EC" opacity="0.54"/>
<circle cx="221.8" cy="187.1" r="0.6" fill="#E0DED6" opacity="0.50"/>
<circle cx="428.0" cy="92.0" r="0.6" fill="#F3F1EC" opacity="0.47"/>
<circle cx="108.9" cy="258.9" r="0.5" fill="#E0DED6" opacity="0.32"/>
<circle cx="193.6" cy="202.8" r="0.7" fill="#F3F1EC" opacity="0.41"/>
<circle cx="343.9" cy="153.6" r="0.5" fill="#E0DED6" opacity="0.55"/>
<circle cx="371.0" cy="150.9" r="1.2" fill="#E0DED6" opacity="0.52"/>
<circle cx="438.3" cy="109.6" r="1.5" fill="#F3F1EC" opacity="0.61"/>
<circle cx="160.9" cy="241.2" r="0.7" fill="#F3F1EC" opacity="0.36"/>
<circle cx="400.1" cy="136.0" r="0.5" fill="#F3F1EC" opacity="0.46"/>
<circle cx="244.8" cy="189.9" r="1.5" fill="#F3F1EC" opacity="0.62"/>
<circle cx="278.8" cy="168.5" r="0.9" fill="#F3F1EC" opacity="0.46"/>
<circle cx="210.8" cy="215.8" r="0.4" fill="#E0DED6" opacity="0.32"/>
<circle cx="258.9" cy="182.8" r="1.5" fill="#E0DED6" opacity="0.39"/>
<circle cx="445.4" cy="101.7" r="1.2" fill="#F3F1EC" opacity="0.35"/>
<circle cx="323.6" cy="147.2" r="0.6" fill="#F3F1EC" opacity="0.50"/>
<circle cx="379.0" cy="159.8" r="1.5" fill="#F3F1EC" opacity="0.42"/>
<circle cx="251.3" cy="201.4" r="1.1" fill="#F3F1EC" opacity="0.48"/>
<circle cx="141.4" cy="226.2" r="0.6" fill="#E0DED6" opacity="0.49"/>
<circle cx="458.1" cy="104.2" r="0.9" fill="#E0DED6" opacity="0.51"/>
<circle cx="235.2" cy="199.0" r="0.5" fill="#F3F1EC" opacity="0.49"/>
<circle cx="218.7" cy="200.3" r="0.7" fill="#F3F1EC" opacity="0.63"/>
<circle cx="285.0" cy="158.1" r="0.8" fill="#E0DED6" opacity="0.39"/>
<circle cx="188.9" cy="216.7" r="0.8" fill="#F3F1EC" opacity="0.52"/>
<circle cx="332.8" cy="140.0" r="1.6" fill="#E0DED6" opacity="0.47"/>
<circle cx="328.1" cy="177.2" r="1.1" fill="#F3F1EC" opacity="0.57"/>
<circle cx="434.8" cy="106.4" r="1.3" fill="#E0DED6" opacity="0.40"/>
<circle cx="284.6" cy="164.7" r="1.5" fill="#F3F1EC" opacity="0.56"/>
<circle cx="391.6" cy="142.5" r="1.3" fill="#F3F1EC" opacity="0.36"/>
<circle cx="110.7" cy="250.7" r="1.1" fill="#F3F1EC" opacity="0.64"/>
<circle cx="232.8" cy="162.6" r="1.3" fill="#E0DED6" opacity="0.52"/>
<circle cx="173.0" cy="217.5" r="1.0" fill="#F3F1EC" opacity="0.48"/>
<circle cx="163.2" cy="227.4" r="1.3" fill="#E0DED6" opacity="0.33"/>
<circle cx="261.1" cy="179.4" r="1.5" fill="#F3F1EC" opacity="0.28"/>
<circle cx="180.5" cy="207.9" r="0.6" fill="#E0DED6" opacity="0.40"/>
<circle cx="329.3" cy="153.7" r="0.9" fill="#F3F1EC" opacity="0.42"/>
<circle cx="177.1" cy="187.3" r="1.1" fill="#F3F1EC" opacity="0.55"/>
<circle cx="402.7" cy="125.0" r="1.0" fill="#E0DED6" opacity="0.48"/>
<circle cx="184.7" cy="220.1" r="0.7" fill="#F3F1EC" opacity="0.35"/>
<!-- MILKY WAY soft glow -->
<ellipse cx="260" cy="180" rx="220" ry="35" fill="#A8C4BF" opacity=".05" transform="rotate(-22 260 180)"/>
<ellipse cx="260" cy="180" rx="160" ry="20" fill="#E0DED6" opacity=".04" transform="rotate(-22 260 180)"/>
<!-- LOGO — on top of stars -->
<g transform="translate(236, 28) scale(0.48)" opacity="0.6">
  <ellipse cx="50" cy="14" rx="12" ry="10" fill="#A8C4BF" transform="rotate(-4 50 14)"/>
  <path d="M29 46 C29 32,37 25,43 34 C45 38,47 40,50 40 C53 40,55 38,57 34 C63 25,71 32,71 46 C71 50,67 52,63 48 C60 45,57 42,55 42" fill="#A8C4BF"/>
  <path d="M50 57 C45 52,34 49,25 54 C17 59,16 71,22 77 C28 82,39 79,45 73 C47 70,49 66,50 63 C51 66,53 70,55 73 C61 79,72 82,78 77 C84 71,83 59,75 54 C66 49,55 52,50 57Z" fill="#A8C4BF"/>
  <ellipse cx="34" cy="67" rx="5.5" ry="3" fill="#2E3B38"/>
  <ellipse cx="66" cy="67" rx="5.5" ry="3" fill="#2E3B38"/>
</g>
<text x="260" y="88" text-anchor="middle" font-family="'Liberation Sans','Open Sans',Arial,sans-serif" font-size="8.5" letter-spacing="1.8" fill="#A8C4BF" opacity="0.5">THE LONG BREATH · BY NEIL PEACOCK</text>
<!-- PLANETS -->
<circle cx="72"  cy="148" r="4.5" fill="#E8CC7A" opacity=".28"/>
<circle cx="72"  cy="148" r="3"   fill="#CDA278" opacity=".20"/>
<ellipse cx="72" cy="147" rx="4"  ry="0.8" fill="#E0DED6" opacity=".12"/>
<circle cx="448" cy="160" r="3.5" fill="#E0DED6" opacity=".22"/>
<ellipse cx="448" cy="160" rx="7.5" ry="2.2" fill="none" stroke="#E0DED6" stroke-width="0.8" opacity=".20"/>
<circle cx="320" cy="122" r="2.5" fill="#CDA278" opacity=".32"/>
<circle cx="470" cy="116" r="3"   fill="#F3F1EC" opacity=".38"/>
<circle cx="470" cy="116" r="1.5" fill="#E8CC7A" opacity=".28"/>
<!-- SHOOTING STAR — bottom-left to top-right, trail fades in, bright head at top-right -->
<line x1="80"  y1="230" x2="340" y2="132" stroke="#F3F1EC" stroke-width="0.6" opacity=".15" stroke-linecap="round"/>
<line x1="140" y1="208" x2="340" y2="132" stroke="#F3F1EC" stroke-width="1.0" opacity=".25" stroke-linecap="round"/>
<line x1="220" y1="178" x2="340" y2="132" stroke="#F3F1EC" stroke-width="1.6" opacity=".40" stroke-linecap="round"/>
<line x1="290" y1="150" x2="340" y2="132" stroke="#F3F1EC" stroke-width="2.2" opacity=".55" stroke-linecap="round"/>
<circle cx="340" cy="132" r="3"   fill="#F3F1EC" opacity=".85"/>
<circle cx="340" cy="132" r="1.5" fill="#E8CC7A" opacity=".70"/>
<circle cx="340" cy="132" r="6"   fill="#F3F1EC" opacity=".15"/>
<!-- HORIZON -->
<line x1="-10" y1="264" x2="530" y2="264" stroke="#5E7872" stroke-width="0.6" opacity=".30"/>
<!-- GROUND -->
<rect x="-10" y="264" width="540" height="55" fill="#3D5C58" opacity=".25"/>
<path d="M-10 268 Q130 265, 260 267 Q390 269, 530 266 L530 310 L-10 310Z" fill="#2E3B38" opacity=".30"/>
<ellipse cx="100" cy="270" rx="60" ry="3" fill="#5E7872" opacity=".10"/>
<ellipse cx="300" cy="271" rx="80" ry="3" fill="#5E7872" opacity=".08"/>
<ellipse cx="460" cy="269" rx="50" ry="2" fill="#5E7872" opacity=".09"/>
<!-- SEATED FIGURE — central, head tilted back looking up -->
<ellipse cx="260" cy="271" rx="12" ry="2.5" fill="#2E3B38" opacity=".40"/>
<ellipse cx="260" cy="267" rx="11" ry="5"   fill="#CDA278" opacity=".82"/>
<ellipse cx="260" cy="258" rx="5.5" ry="7.5" fill="#CDA278" opacity=".90" transform="rotate(8 260 258)"/>
<ellipse cx="263" cy="248" rx="4.2" ry="4"   fill="#CDA278" opacity=".95" transform="rotate(20 263 248)"/>
</svg>
